<?xml version="1.0" encoding="UTF-8" standalone="no"?>
<!DOCTYPE svg PUBLIC "-//W3C//DTD SVG 20010904//EN"
              "http://www.w3.org/TR/2001/REC-SVG-20010904/DTD/svg10.dtd">

<svg xmlns="http://www.w3.org/2000/svg"
     width="9.80556in" height="6.52778in"
     viewBox="0 0 706 470">
  <path id="06 - Montréal"
        fill="none" stroke="black" stroke-width="1"
        d="M 90.00,395.00
           C 86.30,398.70 78.53,405.99 75.99,410.00
             72.74,415.14 69.78,423.71 64.82,427.42
             60.39,430.72 49.13,430.41 46.17,432.02
             41.74,434.42 40.88,439.12 31.00,441.00
             31.00,441.00 31.00,445.00 31.00,445.00
             35.33,445.24 36.89,445.66 41.00,443.71
             44.34,442.13 47.52,439.08 51.00,438.73
             51.00,438.73 70.00,440.66 70.00,440.66
             72.44,440.82 76.38,442.10 78.62,440.66
             84.08,437.94 81.72,431.64 82.56,427.00
             82.56,427.00 87.06,415.00 87.06,415.00
             88.65,410.53 91.44,399.34 90.00,395.00 Z" />
  <path id="13 - Laval"
        fill="none" stroke="black" stroke-width="1"
        d="M 44.00,421.99
           C 48.14,422.55 56.12,424.03 59.83,421.99
             67.34,417.82 67.48,409.80 71.08,404.09
             73.17,400.78 76.69,398.86 80.00,396.79
             76.74,395.72 75.40,396.09 72.00,396.79
             69.70,396.91 67.08,397.12 65.00,398.17
             59.05,401.18 47.80,416.01 44.00,421.99 Z" />
  <path id="05 - Estrie"
        fill="none" stroke="black" stroke-width="1"
        d="M 328.00,388.00
           C 328.00,388.00 329.00,393.00 329.00,393.00
             323.71,393.94 318.44,395.82 313.00,395.82
             308.87,395.82 304.06,394.02 300.00,395.16
             298.11,395.69 295.75,397.15 294.00,398.14
             292.24,399.14 290.07,400.20 288.63,401.63
             281.34,408.94 280.84,426.89 279.00,437.00
             285.12,437.00 305.24,437.73 309.73,435.44
             313.13,433.71 313.93,428.15 316.63,425.31
             319.09,422.73 321.83,423.13 325.00,422.21
             333.54,419.73 329.27,418.32 339.00,420.00
             339.63,407.06 344.79,406.12 350.00,396.00
             350.00,396.00 334.00,397.00 334.00,397.00
             333.98,390.95 334.75,388.81 328.00,388.00 Z" />
  <path id="12 - Chaudière-Appalaches"
        fill="none" stroke="black" stroke-width="1"
        d="M 367.00,308.00
           C 367.00,308.00 349.83,328.37 349.83,328.37
             349.83,328.37 338.00,334.86 338.00,334.86
             338.00,334.86 313.00,346.78 313.00,346.78
             313.00,346.78 297.00,351.00 297.00,351.00
             303.19,359.31 304.26,355.28 310.72,354.03
             312.46,353.72 315.16,353.94 317.00,354.03
             317.54,358.00 319.75,366.59 318.88,370.00
             317.77,374.32 313.33,377.26 314.19,382.00
             315.39,388.66 321.92,392.72 326.00,383.00
             326.00,383.00 333.99,384.73 333.99,384.73
             337.16,385.95 338.51,388.17 341.17,389.27
             342.77,389.93 345.23,390.06 347.00,390.28
             355.75,391.38 358.94,388.84 359.00,380.00
             359.02,376.43 358.65,371.27 359.81,368.00
             359.81,368.00 366.59,355.00 366.59,355.00
             368.33,349.92 367.63,345.22 370.04,340.00
             371.87,336.05 380.18,325.45 379.90,322.00
             379.58,318.15 370.20,310.29 367.00,308.00 Z" />
  <path id="17 - Centre-du-Québec"
        fill="none" stroke="black" stroke-width="1"
        d="M 262.00,375.00
           C 262.00,375.00 267.93,388.51 267.93,388.51
             267.93,388.51 281.00,401.00 281.00,401.00
             282.93,397.74 289.59,390.58 293.09,389.26
             294.95,388.68 296.93,389.37 298.96,389.26
             301.10,388.96 301.94,388.06 304.28,388.55
             304.28,388.55 314.00,392.00 314.00,392.00
             314.00,392.00 308.43,380.42 308.43,380.42
             308.43,380.42 313.88,369.00 313.88,369.00
             313.88,369.00 312.00,359.16 312.00,359.16
             312.00,359.16 302.00,359.16 302.00,359.16
             302.00,359.16 292.00,353.99 292.00,353.99
             292.00,353.99 282.00,360.13 282.00,360.13
             282.00,360.13 262.00,375.00 262.00,375.00 Z" />
  <path id="16 - Montérégie"
        fill="none" stroke="black" stroke-width="1"
        d="M 258.00,381.00
           C 254.98,384.52 247.27,394.05 245.68,398.00
             243.77,402.79 244.12,410.78 240.57,414.39
             238.11,416.89 231.29,419.97 228.00,421.87
             222.53,425.04 208.80,434.44 205.00,439.00
             205.00,439.00 254.00,435.96 254.00,435.96
             254.00,435.96 269.91,434.69 269.91,434.69
             271.36,434.29 272.23,433.78 273.28,432.69
             277.12,428.65 275.94,420.34 275.97,415.00
             276.04,412.20 277.10,406.45 275.97,404.32
             273.67,400.17 265.62,398.35 262.85,394.66
             260.67,391.75 260.22,385.33 258.00,381.00 Z" />
  <path id="14 - Lanaudière"
        fill="none" stroke="black" stroke-width="1"
        d="M 190.00,283.00
           C 193.49,287.48 199.00,292.32 204.00,295.00
             204.00,295.00 200.39,308.00 200.39,308.00
             200.39,308.00 204.32,320.00 204.32,320.00
             204.32,320.00 205.96,342.00 205.96,342.00
             205.96,342.00 208.53,364.59 208.53,364.59
             208.53,364.59 218.44,373.04 218.44,373.04
             218.44,373.04 229.00,399.00 229.00,399.00
             229.00,399.00 243.42,382.00 243.42,382.00
             245.10,380.02 248.54,376.52 248.97,374.00
             249.28,372.17 246.54,365.58 245.87,363.00
             243.08,352.15 234.84,338.14 228.22,329.00
             225.05,324.63 218.03,318.90 216.60,315.00
             215.73,312.65 216.04,307.68 216.00,305.00
             215.96,302.83 215.98,301.00 214.98,299.00
             212.91,294.87 203.40,286.20 199.00,284.47
             196.15,283.35 193.02,283.14 190.00,283.00 Z" />
  <path id="15 - Laurentides"
        fill="none" stroke="black" stroke-width="1"
        d="M 165.00,283.00
           C 165.00,283.00 171.25,294.00 171.25,294.00
             173.13,301.57 165.19,313.39 158.00,314.95
             155.53,315.27 152.62,313.86 150.49,314.95
             147.87,316.66 145.69,324.08 145.00,327.00
             145.00,327.00 152.49,330.51 152.49,330.51
             152.49,330.51 156.08,342.00 156.08,342.00
             156.08,342.00 157.79,352.00 157.79,352.00
             157.79,352.00 155.00,376.00 155.00,376.00
             162.16,378.97 163.18,378.02 169.00,373.28
             171.64,371.13 176.36,366.42 180.00,367.90
             184.50,369.73 194.35,381.10 195.53,386.00
             196.48,389.91 196.65,398.06 198.60,400.83
             200.02,402.85 203.60,405.67 206.00,406.33
             207.82,406.83 217.99,406.02 219.50,404.98
             222.26,403.08 224.13,396.20 223.57,393.00
             222.98,389.62 215.27,376.16 212.61,373.96
             209.45,371.35 204.36,370.35 201.85,366.79
             199.30,363.15 200.05,355.46 200.00,351.00
             200.00,351.00 197.70,318.00 197.70,318.00
             196.76,313.89 193.82,311.76 193.44,309.00
             192.94,305.35 197.05,302.35 197.18,299.00
             197.33,295.10 189.20,287.76 186.00,285.85
             181.79,283.35 171.11,284.10 165.00,283.00 Z" />
  <path id="07 - Outaouais"
        fill="none" stroke="black" stroke-width="1"
        d="M 125.00,311.00
           C 125.00,311.00 108.00,310.00 108.00,310.00
             108.00,310.00 109.00,318.00 109.00,318.00
             109.00,318.00 87.00,321.00 87.00,321.00
             87.00,321.00 86.00,311.00 86.00,311.00
             86.00,311.00 75.00,311.00 75.00,311.00
             75.00,311.00 76.00,343.00 76.00,343.00
             76.00,343.00 77.00,360.00 77.00,360.00
             77.05,367.91 78.22,367.47 87.00,371.22
             94.21,374.30 111.49,373.00 120.10,373.00
             120.10,373.00 120.10,398.00 120.10,398.00
             120.00,399.37 119.94,402.58 120.10,403.78
             122.37,410.81 133.49,406.73 137.00,407.23
             141.06,407.80 145.63,411.16 149.00,411.40
             152.64,411.67 167.66,404.93 172.00,403.20
             175.13,401.95 186.22,398.43 187.34,395.59
             189.73,389.48 182.15,379.13 176.00,378.82
             173.08,378.68 170.44,381.70 168.00,383.16
             161.86,386.85 151.81,389.47 148.10,381.00
             147.63,379.25 147.81,377.80 148.10,376.00
             148.10,376.00 148.10,361.00 148.10,361.00
             148.10,361.00 149.00,349.00 149.00,349.00
             149.00,346.65 149.38,341.55 148.01,339.70
             146.54,337.72 143.18,337.38 140.39,334.61
             135.10,329.37 134.35,323.69 136.67,317.00
             137.71,314.00 138.39,311.95 141.13,310.07
             142.34,309.24 146.54,307.44 148.00,306.95
             151.52,305.78 154.36,306.00 158.00,306.00
             158.72,302.17 160.96,294.48 159.70,291.00
             156.69,282.74 149.44,285.63 143.00,287.00
             137.22,288.24 127.77,294.39 125.60,300.04
             124.75,302.25 125.00,308.37 125.00,311.00 Z" />
  <path id="11 - Gaspésie-Île-de-laMadelaine"
        fill="none" stroke="black" stroke-width="1"
        d="M 494.00,206.00
           C 499.13,214.48 500.07,209.85 506.00,214.31
             510.10,217.40 523.94,231.72 527.00,236.00
             520.87,237.44 507.39,243.52 501.00,246.28
             499.00,247.15 491.76,249.93 490.59,251.07
             487.43,254.15 492.23,258.40 486.85,261.35
             484.96,262.39 475.08,265.21 473.10,264.89
             468.34,264.12 470.88,260.29 463.00,262.00
             463.36,264.61 463.68,268.37 465.58,270.35
             470.63,275.59 481.64,270.57 487.00,268.35
             487.00,268.35 493.63,265.84 493.63,265.84
             496.05,264.29 496.83,261.83 500.04,260.60
             500.04,260.60 515.00,259.06 515.00,259.06
             515.00,259.06 525.58,256.02 525.58,256.02
             531.21,255.89 547.36,264.61 555.00,262.03
             570.00,256.97 568.82,241.63 583.00,243.09
             588.61,243.67 595.97,248.69 601.00,251.58
             601.00,251.58 632.00,269.23 632.00,269.23
             632.00,269.23 659.00,284.58 659.00,284.58
             662.57,286.63 669.79,290.21 672.41,293.21
             677.32,299.59 672.03,305.26 672.41,309.85
             672.96,312.57 675.55,313.22 677.90,312.67
             682.80,311.52 683.23,304.84 685.72,301.00
             688.47,296.78 692.90,293.77 697.00,291.00
             693.04,281.16 684.21,292.18 679.00,291.58
             676.47,291.29 663.21,283.46 660.00,281.70
             660.00,281.70 613.00,255.42 613.00,255.42
             605.93,251.43 594.42,246.11 589.48,239.98
             584.34,233.60 586.86,231.25 585.59,226.00
             585.00,223.61 583.13,220.36 582.00,218.00
             582.00,218.00 589.00,219.00 589.00,219.00
             585.58,214.90 573.80,205.45 569.00,203.27
             565.67,201.76 558.88,200.95 555.00,200.20
             555.00,200.20 543.00,198.09 543.00,198.09
             538.76,197.85 536.85,198.65 533.00,198.91
             515.31,200.13 511.39,199.49 494.00,206.00 Z" />
  <path id="01 - Bas-St-Laurent"
        fill="none" stroke="black" stroke-width="1"
        d="M 370.00,304.00
           C 373.51,308.96 377.44,314.35 383.00,317.00
             383.00,317.00 399.17,297.02 399.17,297.02
             399.17,297.02 409.00,296.00 409.00,296.00
             409.00,296.00 409.00,304.00 409.00,304.00
             413.45,302.70 427.72,295.03 429.20,290.90
             431.09,286.73 429.39,274.78 429.20,270.00
             429.20,270.00 438.00,270.00 438.00,270.00
             438.00,270.00 440.31,266.02 440.31,266.02
             440.31,266.02 457.00,265.00 457.00,265.00
             457.00,265.00 456.00,260.00 456.00,260.00
             456.00,260.00 467.00,256.38 467.00,256.38
             467.00,256.38 475.00,260.77 475.00,260.77
             475.00,260.77 486.00,258.00 486.00,258.00
             486.00,258.00 480.00,248.00 480.00,248.00
             480.00,248.00 515.00,232.00 515.00,232.00
             512.51,228.52 505.60,220.72 502.00,218.77
             499.33,217.32 497.60,218.16 495.00,216.94
             491.91,215.50 489.69,211.82 486.00,211.95
             484.06,212.02 479.87,214.31 478.00,215.25
             478.00,215.25 461.00,223.75 461.00,223.75
             442.56,232.97 440.64,234.80 424.00,246.58
             424.00,246.58 413.00,254.32 413.00,254.32
             413.00,254.32 404.00,262.83 404.00,262.83
             398.61,267.71 393.10,272.34 388.46,278.00
             388.46,278.00 370.00,304.00 370.00,304.00 Z" />
  <path id="03 - Capitale-Nationale"
        fill="none" stroke="black" stroke-width="1"
        d="M 299.00,273.00
           C 299.00,273.00 300.46,282.96 300.46,282.96
             300.46,282.96 294.31,291.04 294.31,291.04
             294.31,291.04 288.00,311.00 288.00,311.00
             288.00,311.00 280.00,311.00 280.00,311.00
             280.63,317.07 281.95,319.46 286.05,324.00
             287.85,326.00 291.35,328.66 290.06,331.72
             289.36,333.51 281.77,338.82 290.06,343.22
             293.04,344.83 296.11,343.12 299.00,342.05
             305.03,339.82 312.93,337.40 318.00,333.65
             324.07,329.16 328.63,324.18 334.00,319.04
             336.82,316.34 341.36,312.93 343.49,309.99
             346.75,305.47 346.12,300.29 348.72,297.56
             351.38,294.77 355.42,295.91 358.48,293.41
             361.56,290.89 371.46,275.04 373.00,271.00
             373.00,271.00 299.00,273.00 299.00,273.00 Z" />
  <path id="04 - Mauricie"
        fill="none" stroke="black" stroke-width="1"
        d="M 163.00,213.00
           C 163.00,213.00 164.00,232.00 164.00,232.00
             164.00,232.00 165.00,259.00 165.00,259.00
             165.00,259.00 166.00,278.00 166.00,278.00
             166.00,278.00 186.00,276.82 186.00,276.82
             188.85,276.96 194.91,275.96 197.00,276.82
             201.57,278.12 212.27,291.74 216.05,296.00
             223.08,303.91 237.16,321.01 241.96,330.00
             241.96,330.00 255.00,364.00 255.00,364.00
             255.00,364.00 284.00,346.00 284.00,346.00
             284.00,346.00 271.67,326.00 271.67,326.00
             270.25,321.65 271.41,316.39 271.67,312.00
             272.05,309.73 271.80,305.01 272.60,303.23
             274.41,299.19 278.37,301.17 282.21,296.77
             283.72,295.05 285.18,292.05 286.30,290.00
             292.05,279.53 291.00,280.78 291.00,269.00
             291.00,269.00 263.00,269.00 263.00,269.00
             253.02,268.86 248.70,261.70 242.00,255.00
             242.00,255.00 212.00,226.00 212.00,226.00
             204.28,218.28 202.22,213.02 191.00,213.00
             191.00,213.00 163.00,213.00 163.00,213.00 Z" />
  <path id="08 - Abitibi-Téminscamingue"
        fill="none" stroke="black" stroke-width="1"
        d="M 12.00,212.00
           C 12.00,212.00 12.00,255.00 12.00,255.00
             12.00,255.00 13.14,272.00 13.14,272.00
             13.14,272.00 13.14,305.00 13.14,305.00
             13.14,305.00 13.14,312.00 13.14,312.00
             13.14,312.00 25.72,335.00 25.72,335.00
             25.72,335.00 39.33,357.28 39.33,357.28
             39.33,357.28 50.00,360.87 50.00,360.87
             50.00,360.87 71.00,366.00 71.00,366.00
             71.00,366.00 70.00,306.00 70.00,306.00
             70.00,306.00 112.00,306.00 112.00,306.00
             124.90,305.76 118.76,291.21 128.05,286.65
             128.05,286.65 149.00,281.37 149.00,281.37
             151.17,280.83 155.62,280.06 157.01,278.28
             158.41,276.48 158.02,270.38 158.00,268.00
             158.00,268.00 157.00,253.00 157.00,253.00
             157.00,253.00 157.00,236.00 157.00,236.00
             157.00,236.00 156.04,225.00 156.04,225.00
             156.04,225.00 156.04,212.00 156.04,212.00
             156.04,212.00 12.00,212.00 12.00,212.00 Z" />
  <path id="09 - Côte-Nord"
        fill="none" stroke="black" stroke-width="1"
        d="M 373.00,8.00
           C 373.00,8.00 373.00,118.00 373.00,118.00
             373.00,118.00 372.00,133.00 372.00,133.00
             372.00,133.00 372.00,240.00 372.00,240.00
             372.00,242.22 371.78,245.70 373.02,247.59
             374.09,249.20 376.27,250.11 378.00,250.83
             384.30,253.42 385.89,251.74 390.01,246.91
             392.90,243.52 402.08,232.43 403.58,229.00
             404.96,225.86 406.68,212.00 407.00,208.00
             412.85,206.89 414.70,204.97 420.00,202.82
             420.00,202.82 445.00,193.05 445.00,193.05
             450.06,191.16 462.15,187.12 465.68,183.73
             465.68,183.73 490.00,149.00 490.00,149.00
             492.51,145.26 498.06,136.14 502.04,134.60
             503.88,133.88 506.99,134.00 509.00,134.00
             509.00,134.00 531.00,135.00 531.00,135.00
             531.00,135.00 655.00,137.00 655.00,137.00
             655.00,137.00 667.00,137.96 667.00,137.96
             667.00,137.96 681.00,137.96 681.00,137.96
             685.40,137.99 695.04,137.75 697.60,133.58
             699.13,131.08 699.00,125.92 699.00,123.00
             699.00,123.00 699.00,93.00 699.00,93.00
             699.00,93.00 700.00,77.00 700.00,77.00
             700.00,77.00 700.00,42.00 700.00,42.00
             700.00,42.00 625.00,42.00 625.00,42.00
             625.00,42.00 618.00,41.40 618.00,41.40
             618.00,41.40 596.00,22.00 596.00,22.00
             596.00,22.00 589.02,45.00 589.02,45.00
             589.02,45.00 585.30,54.36 585.30,54.36
             585.30,54.36 577.00,55.02 577.00,55.02
             577.00,55.02 566.51,52.42 566.51,52.42
             566.51,52.42 562.58,44.00 562.58,44.00
             562.58,44.00 555.00,24.00 555.00,24.00
             555.00,24.00 527.00,33.95 527.00,33.95
             522.16,35.71 518.02,37.89 513.00,35.71
             509.18,34.06 501.22,29.42 499.14,25.91
             496.68,21.76 496.46,9.49 492.57,7.57
             491.13,6.86 487.67,7.00 486.00,7.00
             486.00,7.00 441.00,7.00 441.00,7.00
             441.00,7.00 424.00,8.00 424.00,8.00
             424.00,8.00 373.00,8.00 373.00,8.00 Z" />
  <path id="02 - Saguenay-Lac-St-Jean"
        fill="none" stroke="black" stroke-width="1"
        d="M 363.00,10.00
           C 363.00,10.00 334.38,30.18 334.38,30.18
             331.47,33.38 324.28,47.30 321.70,52.00
             311.21,71.11 313.29,68.93 298.73,86.00
             294.02,91.53 281.21,107.91 276.00,110.91
             270.98,113.81 256.75,115.46 252.09,118.72
             248.99,120.90 244.01,128.60 241.58,132.00
             241.58,132.00 224.76,156.00 224.76,156.00
             222.63,160.03 221.41,167.38 220.35,172.00
             220.35,172.00 215.00,194.00 215.00,194.00
             214.22,197.65 211.83,204.67 213.02,208.00
             213.91,210.48 218.31,215.63 220.12,218.00
             220.12,218.00 234.00,236.00 234.00,236.00
             237.96,241.03 245.68,252.87 251.01,255.35
             251.01,255.35 265.00,259.37 265.00,259.37
             274.12,261.72 279.42,263.99 289.00,264.00
             289.00,264.00 328.00,264.00 328.00,264.00
             332.25,263.99 350.77,262.90 353.61,260.99
             355.93,259.44 357.97,254.56 359.25,252.00
             363.69,243.11 365.98,241.18 366.00,231.00
             366.00,231.00 366.00,188.00 366.00,188.00
             366.00,188.00 365.00,174.00 365.00,174.00
             365.00,174.00 365.00,75.00 365.00,75.00
             365.00,75.00 364.00,58.00 364.00,58.00
             364.00,58.00 364.00,32.00 364.00,32.00
             364.00,26.59 364.78,14.49 363.00,10.00 Z" />
  <path id="10 - Nord-du-Quebec"
        fill="none" stroke="black" stroke-width="1"
        d="M 49.00,3.00
           C 49.00,3.00 44.25,30.00 44.25,30.00
             44.25,30.00 42.44,43.00 42.44,43.00
             42.44,43.00 50.09,58.00 50.09,58.00
             50.09,58.00 40.55,71.97 40.55,71.97
             40.55,71.97 36.41,75.43 36.41,75.43
             36.41,75.43 30.00,73.58 30.00,73.58
             30.00,73.58 15.00,67.00 15.00,67.00
             15.00,67.00 15.00,93.00 15.00,93.00
             15.00,93.00 14.00,108.00 14.00,108.00
             14.00,108.00 14.00,157.00 14.00,157.00
             14.00,157.00 13.00,174.00 13.00,174.00
             13.00,174.00 13.00,200.00 13.00,200.00
             13.00,200.00 36.00,201.00 36.00,201.00
             36.00,201.00 103.00,203.00 103.00,203.00
             103.00,203.00 115.00,203.96 115.00,203.96
             115.00,203.96 131.00,203.96 131.00,203.96
             131.00,203.96 146.00,205.00 146.00,205.00
             146.00,205.00 161.00,205.00 161.00,205.00
             161.00,205.00 177.00,206.00 177.00,206.00
             179.14,205.97 180.93,205.98 183.00,205.30
             185.73,204.42 203.63,194.13 205.72,192.22
             209.15,189.09 209.53,183.37 210.40,179.00
             212.10,170.50 213.69,154.26 219.13,148.00
             219.13,148.00 265.00,104.42 265.00,104.42
             265.00,104.42 291.79,80.99 291.79,80.99
             291.79,80.99 320.21,33.17 320.21,33.17
             320.21,33.17 360.00,3.00 360.00,3.00
             360.00,3.00 49.00,3.00 49.00,3.00 Z" />
</svg>
